<svg width="24" height="24" viewBox="0 0 24 24" fill="none" xmlns="http://www.w3.org/2000/svg">
<path d="M4.57504 9C4.46315 8.99976 4.35274 8.97449 4.25189 8.92604C4.15103 8.87759 4.0623 8.80718 3.99219 8.71999C3.92207 8.6328 3.87235 8.53102 3.84668 8.42212C3.821 8.31322 3.82001 8.19996 3.84379 8.09063C4.44379 5.20313 7.86566 3 12 3C16.1344 3 19.5563 5.20313 20.1563 8.09063C20.1801 8.19996 20.1791 8.31322 20.1534 8.42212C20.1277 8.53102 20.078 8.6328 20.0079 8.71999C19.9378 8.80718 19.849 8.87759 19.7482 8.92604C19.6473 8.97449 19.5369 8.99976 19.425 9H4.57504Z" stroke="white" stroke-width="2" stroke-linecap="round" stroke-linejoin="round"/>
<path d="M19.5 15.75V17.25C19.5 18.0456 19.1839 18.8087 18.6213 19.3713C18.0587 19.9339 17.2956 20.25 16.5 20.25H7.5C6.70435 20.25 5.94129 19.9339 5.37868 19.3713C4.81607 18.8087 4.5 18.0456 4.5 17.25V15.75" stroke="white" stroke-width="2" stroke-linecap="round" stroke-linejoin="round"/>
<path d="M2.625 16.5L6.375 15L10.125 16.5L13.875 15L17.625 16.5L21.375 15" stroke="white" stroke-width="2" stroke-linecap="round" stroke-linejoin="round"/>
<path d="M2.25 12H21.75" stroke="white" stroke-width="2" stroke-linecap="round" stroke-linejoin="round"/>
</svg>
